<svg xmlns="http://www.w3.org/2000/svg" width="1280" height="400" viewBox="0 0 1280 400" role="img" aria-labelledby="title desc">
  <title id="title">Serhat Hançer — Software Engineer</title>
  <desc id="desc">Light profile banner featuring Serhat Hançer, backend systems, full-stack products and document intelligence.</desc>

  <defs>
    <linearGradient id="background" x1="0" y1="0" x2="1" y2="1">
      <stop offset="0" stop-color="#f8fafc"/>
      <stop offset="0.58" stop-color="#f1f5f9"/>
      <stop offset="1" stop-color="#eef2ff"/>
    </linearGradient>
    <linearGradient id="accent" x1="0" y1="0" x2="1" y2="0">
      <stop offset="0" stop-color="#0891b2"/>
      <stop offset="0.52" stop-color="#0284c7"/>
      <stop offset="1" stop-color="#7c3aed"/>
    </linearGradient>
    <radialGradient id="glowA" cx="50%" cy="50%" r="50%">
      <stop offset="0" stop-color="#22d3ee" stop-opacity="0.18"/>
      <stop offset="1" stop-color="#22d3ee" stop-opacity="0"/>
    </radialGradient>
    <radialGradient id="glowB" cx="50%" cy="50%" r="50%">
      <stop offset="0" stop-color="#8b5cf6" stop-opacity="0.14"/>
      <stop offset="1" stop-color="#8b5cf6" stop-opacity="0"/>
    </radialGradient>
    <pattern id="grid" width="32" height="32" patternUnits="userSpaceOnUse">
      <path d="M 32 0 L 0 0 0 32" fill="none" stroke="#475569" stroke-opacity="0.08" stroke-width="1"/>
    </pattern>
    <filter id="softGlow" x="-40%" y="-40%" width="180%" height="180%">
      <feGaussianBlur stdDeviation="4" result="blur"/>
      <feMerge>
        <feMergeNode in="blur"/>
        <feMergeNode in="SourceGraphic"/>
      </feMerge>
    </filter>
    <filter id="shadow" x="-20%" y="-20%" width="140%" height="140%">
      <feDropShadow dx="0" dy="14" stdDeviation="18" flood-color="#64748b" flood-opacity="0.24"/>
    </filter>
  </defs>

  <rect x="8" y="8" width="1264" height="384" rx="28" fill="url(#background)" stroke="#cbd5e1" stroke-width="2"/>
  <rect x="9" y="9" width="1262" height="382" rx="27" fill="url(#grid)"/>
  <ellipse cx="205" cy="70" rx="330" ry="230" fill="url(#glowA)"/>
  <ellipse cx="1110" cy="345" rx="370" ry="255" fill="url(#glowB)"/>

  <g opacity="0.55">
    <path d="M 615 76 C 694 76, 698 118, 756 118" fill="none" stroke="#0891b2" stroke-width="1.5"/>
    <circle cx="615" cy="76" r="4" fill="#0891b2"/>
    <circle cx="756" cy="118" r="4" fill="#0891b2"/>
    <path d="M 580 293 C 664 293, 683 248, 754 248" fill="none" stroke="#7c3aed" stroke-width="1.5"/>
    <circle cx="580" cy="293" r="4" fill="#7c3aed"/>
    <circle cx="754" cy="248" r="4" fill="#7c3aed"/>
    <path d="M 670 184 L 744 184" fill="none" stroke="#94a3b8" stroke-width="1.5" stroke-dasharray="5 7"/>
  </g>

  <g transform="translate(66 42)">
    <rect width="246" height="30" rx="15" fill="#ffffff" stroke="#bae6fd"/>
    <circle cx="18" cy="15" r="4" fill="#0891b2" filter="url(#softGlow)">
      <animate attributeName="opacity" values="1;0.35;1" dur="2.2s" repeatCount="indefinite"/>
    </circle>
    <text x="32" y="20" fill="#475569" font-family="Consolas, Menlo, monospace" font-size="13" letter-spacing="0.6">github.com/alsanakoala</text>
  </g>

  <g transform="translate(68 104)">
    <rect width="56" height="56" rx="16" fill="#ffffff" stroke="#0891b2" stroke-opacity="0.45"/>
    <text x="28" y="37" text-anchor="middle" fill="#0f172a" font-family="Segoe UI, Arial, sans-serif" font-size="23" font-weight="700">SH</text>
  </g>

  <text x="68" y="214" fill="#0f172a" font-family="Segoe UI, Arial, sans-serif" font-size="60" font-weight="750" letter-spacing="1.5">SERHAT HANÇER</text>
  <rect x="68" y="233" width="510" height="4" rx="2" fill="url(#accent)"/>
  <text x="68" y="273" fill="#334155" font-family="Segoe UI, Arial, sans-serif" font-size="24" font-weight="600" letter-spacing="5">SOFTWARE ENGINEER</text>
  <text x="68" y="306" fill="#64748b" font-family="Consolas, Menlo, monospace" font-size="15" letter-spacing="1.1">BACKEND SYSTEMS  /  FULL-STACK PRODUCTS  /  DOCUMENT INTELLIGENCE</text>

  <g transform="translate(68 331)">
    <rect width="152" height="34" rx="17" fill="#ecfeff" stroke="#a5f3fc"/>
    <circle cx="18" cy="17" r="4" fill="#0891b2"/>
    <text x="31" y="22" fill="#155e75" font-family="Consolas, Menlo, monospace" font-size="12" letter-spacing="0.5">PUBLIC SYSTEMS</text>
  </g>
  <g transform="translate(230 331)">
    <rect width="132" height="34" rx="17" fill="#f5f3ff" stroke="#ddd6fe"/>
    <circle cx="18" cy="17" r="4" fill="#7c3aed"/>
    <text x="31" y="22" fill="#5b21b6" font-family="Consolas, Menlo, monospace" font-size="12" letter-spacing="0.5">APPLIED NLP</text>
  </g>
  <g transform="translate(372 331)">
    <rect width="186" height="34" rx="17" fill="#f0fdfa" stroke="#99f6e4"/>
    <circle cx="18" cy="17" r="4" fill="#0f766e"/>
    <text x="31" y="22" fill="#115e59" font-family="Consolas, Menlo, monospace" font-size="12" letter-spacing="0.5">QUALITY ENGINEERING</text>
  </g>

  <g transform="translate(778 61)">
    <rect width="430" height="278" rx="20" fill="#ffffff" stroke="#cbd5e1" stroke-width="1.5"/>
    <rect x="1" y="1" width="428" height="46" rx="19" fill="#f8fafc"/>
    <path d="M 1 46 H 429" stroke="#e2e8f0"/>
    <circle cx="25" cy="24" r="5" fill="#fb7185"/>
    <circle cx="44" cy="24" r="5" fill="#fbbf24"/>
    <circle cx="63" cy="24" r="5" fill="#34d399"/>
    <text x="215" y="29" text-anchor="middle" fill="#64748b" font-family="Consolas, Menlo, monospace" font-size="12">serhat@engineering:~</text>

    <text x="28" y="85" fill="#0891b2" font-family="Consolas, Menlo, monospace" font-size="15">$ profile --status</text>
    <text x="28" y="112" fill="#334155" font-family="Consolas, Menlo, monospace" font-size="15">&gt; building dependable systems</text>

    <text x="28" y="151" fill="#7c3aed" font-family="Consolas, Menlo, monospace" font-size="15">$ stack --primary</text>
    <text x="28" y="178" fill="#334155" font-family="Consolas, Menlo, monospace" font-size="15">&gt; java · spring · react · typescript</text>
    <text x="28" y="205" fill="#334155" font-family="Consolas, Menlo, monospace" font-size="15">&gt; postgres · docker · automated tests</text>

    <text x="28" y="244" fill="#0f766e" font-family="Consolas, Menlo, monospace" font-size="15">$ next --ship</text>
    <rect x="28" y="257" width="10" height="18" rx="1" fill="#0f766e">
      <animate attributeName="opacity" values="1;1;0;0;1" keyTimes="0;0.45;0.5;0.95;1" dur="1.15s" repeatCount="indefinite"/>
    </rect>
  </g>

  <text x="1210" y="368" text-anchor="end" fill="#94a3b8" font-family="Consolas, Menlo, monospace" font-size="11" letter-spacing="2">ENGINEERING PROFILE / 2026</text>
</svg>
